# Alias OBJ Model File
# Exported from SketchUp, (c) 2000-2012 Trimble Navigation Limited
# File units = meters

mtllib top_floor_roof.mtl

g Mesh1 floor_ceiling Model

usemtl ceiling_texture
v 12.52 30.71 3
vt 14.5833 1.25
vn -4.02565e-018 1 2.24397e-016
v -2.9808 30.71 -11.96
vt 1.666 13.7167
v -2.9808 30.71 3
vt 1.666 1.25
f 1/1/1 2/2/1 3/3/1

v -1 30.71 -11.96
vt 3.31667 13.7167
f 2/2/1 1/1/1 4/4/1

vn 4.02565e-018 -1 -2.24397e-016
f 3/3/2 2/2/2 1/1/2

vt -13.7167 0.00833333
vn -1 -3.55332e-017 -0
v -2.9808 30.7 3
vt -1.25 -5.91983e-017
vt -1.25 0.00833333
f 2/5/3 5/6/3 3/7/3

v -2.9808 30.7 -11.96
vt -13.7167 -5.91983e-017
f 5/6/3 2/5/3 6/8/3

vn 1 3.55332e-017 0
f 3/7/4 5/6/4 2/5/4

vt 1.666 -4.43622e-016
vn 1.8629e-016 -3.54898e-016 1
vt 14.5833 0.00833333
vt 1.666 0.00833333
f 5/9/5 1/10/5 3/11/5

v 12.52 30.7 3
vt 14.5833 -4.43622e-016
f 1/10/5 5/9/5 7/12/5

vn -1.8629e-016 3.54898e-016 -1
f 7/12/6 5/9/6 1/10/6

f 3/11/6 1/10/6 5/9/6

v 12.52 30.7 4.5
vt 0 -5.18192e-016
vt -1.25 -5.18192e-016
f 8/13/3 1/7/3 7/14/3

v 12.52 30.71 4.5
vt 0 0.00833333
f 1/7/3 8/13/3 9/15/3

f 9/15/4 8/13/4 1/7/4

vt 14.5833 0
vn 0 -3.54898e-016 1
v 23.48 30.71 4.5
vt 23.7167 0.00833333
f 8/16/7 10/17/7 9/10/7

v 23.48 30.7 4.5
vt 23.7167 0
f 10/17/7 8/16/7 11/18/7

vn -0 3.54898e-016 -1
f 11/18/8 8/16/8 10/17/8

f 9/10/8 10/17/8 8/16/8

vt 23.7167 1.86997e-018
vt 14.5833 1.86997e-018
f 10/19/1 1/1/1 9/20/1

v 22.98 30.71 -27.46
vt 23.3 26.6333
f 1/1/1 10/19/1 12/21/1

f 9/20/2 1/1/2 10/19/2

f 12/21/2 10/19/2 1/1/2

v 23.48 30.71 -27.46
vt 23.7167 26.6333
f 12/21/1 10/19/1 13/22/1

f 13/22/2 10/19/2 12/21/2

v 23.48 30.71 3.02
vt 23.7167 1.23333
f 13/22/1 10/19/1 14/23/1

f 14/23/2 10/19/2 13/22/2

vn 1 3.55332e-017 -0
v 23.48 30.7 3.02
vt 1.23333 -8.42729e-016
vt 1.23333 0.00833333
f 10/15/9 15/24/9 14/25/9

vt 0 -8.42729e-016
f 15/24/9 10/15/9 11/26/9

vn -1 -3.55332e-017 0
f 11/26/10 10/15/10 15/24/10

f 14/25/10 15/24/10 10/15/10

v 23.48 30.7 2
vt 2.08333 -8.42729e-016
f 16/27/9 14/25/9 15/24/9

v 23.48 30.71 2
vt 2.08333 0.00833333
f 14/25/9 16/27/9 17/28/9

f 15/24/10 14/25/10 16/27/10

f 17/28/10 16/27/10 14/25/10

vt 23.7167 -7.3937e-016
v 23.98 30.71 2
vt 24.1333 0.00833333
f 16/29/7 18/30/7 17/17/7

v 23.98 30.7 2
vt 24.1333 -7.3937e-016
f 18/30/7 16/29/7 19/31/7

f 19/31/8 16/29/8 18/30/8

f 17/17/8 18/30/8 16/29/8

vt 24.1333 2.08333
v 23.48 30.71 -11.46
vt 23.7167 13.3
vt 23.7167 2.08333
f 18/32/1 20/33/1 17/34/1

v 23.98 30.71 -11.46
vt 24.1333 13.3
f 20/33/1 18/32/1 21/35/1

f 17/34/2 20/33/2 18/32/2

f 13/22/1 17/34/1 20/33/1

f 13/22/1 14/23/1 17/34/1

f 17/34/2 14/23/2 13/22/2

f 20/33/2 17/34/2 13/22/2

v 23.48 30.71 -11.48
vt 23.7167 13.3167
f 13/22/1 20/33/1 22/36/1

f 22/36/2 20/33/2 13/22/2

vt 13.3 0.00833333
v 23.48 30.7 -11.48
vt 13.3167 -8.42729e-016
vt 13.3167 0.00833333
f 20/37/9 23/38/9 22/39/9

v 23.48 30.7 -11.46
vt 13.3 -8.42729e-016
f 23/38/9 20/37/9 24/40/9

f 24/40/10 20/37/10 23/38/10

vt -23.7167 0.00833333
vn 0 3.54898e-016 -1
v 23.98 30.7 -11.46
vt -24.1333 -4.72014e-015
vt -23.7167 -4.72014e-015
f 20/41/11 25/42/11 24/43/11

vt -24.1333 0.00833333
f 25/42/11 20/41/11 21/44/11

vn -0 -3.54898e-016 1
f 24/43/12 25/42/12 20/41/12

f 21/44/12 20/41/12 25/42/12

f 21/35/2 18/32/2 20/33/2

vn 1 3.55332e-017 -4.29071e-016
vt 13.3 -8.57534e-016
f 18/28/13 25/45/13 21/37/13

vt 2.08333 -8.57534e-016
f 25/45/13 18/28/13 19/46/13

vn -1 -3.55332e-017 4.29071e-016
f 19/46/14 18/28/14 25/45/14

f 21/37/14 25/45/14 18/28/14

f 22/39/10 23/38/10 20/37/10

vt 23.7167 -4.72605e-015
v 23.5 30.71 -11.48
vt 23.7333 0.00833333
f 23/47/7 26/48/7 22/17/7

v 23.5 30.7 -11.48
vt 23.7333 -4.72605e-015
f 26/48/7 23/47/7 27/49/7

f 27/49/8 23/47/8 26/48/8

f 22/17/8 26/48/8 23/47/8

vt 23.7333 13.3167
v 23.48 30.71 -18.98
vt 23.7167 19.5667
f 26/50/1 28/51/1 22/36/1

v 23.5 30.71 -18.98
vt 23.7333 19.5667
f 28/51/1 26/50/1 29/52/1

f 22/36/2 28/51/2 26/50/2

f 13/22/1 22/36/1 28/51/1

f 28/51/2 22/36/2 13/22/2

v 23.48 30.71 -19
vt 23.7167 19.5833
f 13/22/1 28/51/1 30/53/1

f 30/53/2 28/51/2 13/22/2

vt 19.5667 0.00833333
v 23.48 30.7 -19
vt 19.5833 3.97001e-015
vt 19.5833 0.00833333
f 28/54/9 31/55/9 30/56/9

v 23.48 30.7 -18.98
vt 19.5667 3.97001e-015
f 31/55/9 28/54/9 32/57/9

f 32/57/10 28/54/10 31/55/10

v 23.5 30.7 -18.98
vt -23.7333 -2.13142e-015
vt -23.7167 -2.13142e-015
f 28/41/11 33/58/11 32/59/11

vt -23.7333 0.00833333
f 33/58/11 28/41/11 29/60/11

f 32/59/12 33/58/12 28/41/12

f 29/60/12 28/41/12 33/58/12

f 29/52/2 26/50/2 28/51/2

v 23.5 30.71 -11.98
vt 23.7333 13.7333
f 29/52/1 26/50/1 34/61/1

f 34/61/2 26/50/2 29/52/2

vn 1 0 -0
v 23.5 30.7 -11.98
vt 13.7333 0
vt 13.7333 0.00833333
f 26/39/15 35/62/15 34/63/15

vt 13.3167 0
f 35/62/15 26/39/15 27/64/15

vn -1 -0 0
f 27/64/16 26/39/16 35/62/16

f 34/63/16 35/62/16 26/39/16

v 23.5 30.71 -18.48
vt 23.7333 19.15
f 29/52/1 34/61/1 36/65/1

f 36/65/2 34/61/2 29/52/2

vt 19.15 0.00833333
vt 19.5667 4.81274e-015
f 36/66/15 33/67/15 29/54/15

v 23.5 30.7 -18.48
vt 19.15 1.44382e-014
f 33/67/15 36/66/15 37/68/15

f 37/68/16 36/66/16 33/67/16

f 29/54/16 33/67/16 36/66/16

f 30/56/10 31/55/10 28/54/10

vt 23.7167 -2.13734e-015
v 23.98 30.71 -19
f 31/69/7 38/30/7 30/17/7

v 23.98 30.7 -19
vt 24.1333 -2.13734e-015
f 38/30/7 31/69/7 39/70/7

f 39/70/8 31/69/8 38/30/8

f 30/17/8 38/30/8 31/69/8

vt 24.1333 19.5833
v 23.48 30.71 -26.96
vt 23.7167 26.2167
f 38/71/1 40/72/1 30/53/1

v 23.98 30.71 -26.96
vt 24.1333 26.2167
f 40/72/1 38/71/1 41/73/1

f 30/53/2 40/72/2 38/71/2

f 13/22/1 30/53/1 40/72/1

f 40/72/2 30/53/2 13/22/2

vt 26.2167 0.00833333
v 23.48 30.7 -27.46
vt 26.6333 3.97001e-015
vt 26.6333 0.00833333
f 40/74/9 42/75/9 13/76/9

v 23.48 30.7 -26.96
vt 26.2167 3.97001e-015
f 42/75/9 40/74/9 43/77/9

f 43/77/10 40/74/10 42/75/10

v 23.98 30.7 -26.96
vt -24.1333 -4.49149e-015
vt -23.7167 -4.49149e-015
f 40/41/11 44/78/11 43/79/11

f 44/78/11 40/41/11 41/44/11

f 43/79/12 44/78/12 40/41/12

f 41/44/12 40/41/12 44/78/12

f 41/73/2 38/71/2 40/72/2

vt 26.2167 3.95521e-015
f 38/56/9 44/80/9 41/74/9

vt 19.5833 3.95521e-015
f 44/80/9 38/56/9 39/81/9

f 39/81/10 38/56/10 44/80/10

f 41/74/10 44/80/10 38/56/10

f 13/76/10 42/75/10 40/74/10

vt -23.7167 -4.63937e-015
vt -23.3 0.00833333
f 42/82/11 12/83/11 13/41/11

v 22.98 30.7 -27.46
vt -23.3 -4.63937e-015
f 12/83/11 42/82/11 45/84/11

f 45/84/12 42/82/12 12/83/12

f 13/41/12 12/83/12 42/82/12

v 22.98 30.7 -27.96
vt 27.05 3.98482e-015
vt 26.6333 3.98482e-015
f 46/85/9 12/76/9 45/86/9

v 22.98 30.71 -27.96
vt 27.05 0.00833333
f 12/76/9 46/85/9 47/87/9

f 45/86/10 12/76/10 46/85/10

f 47/87/10 46/85/10 12/76/10

vt -23.3 -4.78724e-015
v -1.98 30.71 -27.96
vt -2.5 0.00833333
f 46/88/11 48/89/11 47/83/11

v -1.98 30.7 -27.96
vt -2.5 -4.78724e-015
f 48/89/11 46/88/11 49/90/11

f 49/90/12 46/88/12 48/89/12

f 47/83/12 48/89/12 46/88/12

vt 2.5 27.05
v -0.5 30.71 -18.5
vt 3.73333 19.1667
vt 23.3 27.05
f 48/91/1 50/92/1 47/93/1

v -1.98 30.71 -27.46
vt 2.5 26.6333
f 51/94/1 50/92/1 48/91/1

v -3 30.71 -18.5
vt 1.65 19.1667
f 51/94/1 52/95/1 50/92/1

v -4.98 30.71 -27.46
vt 3.35471e-020 26.6333
f 53/96/1 52/95/1 51/94/1

v -4.98 30.71 -18.5
vt 3.35471e-020 19.1667
f 52/95/1 53/96/1 54/97/1

f 54/97/2 53/96/2 52/95/2

vt -26.6333 0.00833333
v -4.98 30.7 -18.5
vt -19.1667 4.81274e-015
vt -19.1667 0.00833333
f 53/98/3 55/99/3 54/100/3

v -4.98 30.7 -27.46
vt -26.6333 4.81274e-015
f 55/99/3 53/98/3 56/101/3

f 54/100/4 55/99/4 53/98/4

vt 0 -1.98946e-015
vt 1.65 0.00833333
f 55/102/7 52/103/7 54/15/7

v -3 30.7 -18.5
vt 1.65 -1.98946e-015
f 52/103/7 55/102/7 57/104/7

f 57/104/8 55/102/8 52/103/8

f 54/15/8 52/103/8 55/102/8

f 56/101/4 53/98/4 55/99/4

v -1.98 30.7 -27.46
vt -2.5 -4.63937e-015
vt 0 -4.63937e-015
f 53/15/11 58/105/11 56/106/11

f 58/105/11 53/15/11 51/89/11

f 56/106/12 58/105/12 53/15/12

f 51/89/12 53/15/12 58/105/12

f 51/94/2 52/95/2 53/96/2

f 50/92/2 52/95/2 51/94/2

f 48/91/2 50/92/2 51/94/2

f 47/93/2 50/92/2 48/91/2

f 47/93/1 50/92/1 1/1/1

f 1/1/2 50/92/2 47/93/2

v -0.5 30.71 -11.98
vt 3.73333 13.7333
f 59/107/1 1/1/1 50/92/1

v -1 30.71 -11.98
vt 3.31667 13.7333
f 60/108/1 1/1/1 59/107/1

f 4/4/1 1/1/1 60/108/1

f 4/4/2 1/1/2 2/2/2

f 60/108/2 1/1/2 4/4/2

f 59/107/2 1/1/2 60/108/2

f 50/92/2 1/1/2 59/107/2

vt -13.7333 0.00833333
v -1 30.7 -11.96
vt -13.7167 -1.17852e-016
f 60/109/3 61/110/3 4/5/3

v -1 30.7 -11.98
vt -13.7333 -1.17852e-016
f 61/110/3 60/109/3 62/111/3

f 4/5/4 61/110/4 60/109/4

vt -3.31667 -4.86801e-015
vt -1.666 0.00833333
vt -3.31667 0.00833333
f 61/112/11 2/113/11 4/114/11

vt -1.666 -4.86801e-015
f 2/113/11 61/112/11 6/115/11

f 6/115/12 61/112/12 2/113/12

f 4/114/12 2/113/12 61/112/12

f 6/8/4 2/5/4 5/6/4

f 62/111/4 60/109/4 61/110/4

f 47/93/1 1/1/1 12/21/1

f 12/21/2 1/1/2 47/93/2

vt -27.05 0.00833333
vt -26.6333 4.72391e-015
f 48/116/3 58/117/3 51/98/3

vt -27.05 4.72391e-015
f 58/117/3 48/116/3 49/118/3

f 51/98/4 58/117/4 48/116/4

f 49/118/4 48/116/4 58/117/4

f 7/14/4 1/7/4 8/13/4

g Mesh2 floor_ceiling Model

l 37 33

l 37 36

l 34 36

l 26 34

l 26 22

l 27 26

l 27 23

l 27 35

l 35 34

l 24 23

l 25 24

l 19 25

l 16 19

l 15 16

l 11 15

l 8 11

l 7 8

l 5 7

l 6 5

l 61 6

l 62 61

l 62 60

l 59 60

l 50 59

l 52 50

l 54 52

l 53 54

l 51 53

l 48 51

l 47 48

l 12 47

l 13 12

l 40 13

l 41 40

l 38 41

l 30 38

l 28 30

l 29 28

l 36 29

l 33 29

l 33 32

l 32 31

l 32 28

l 31 39

l 31 30

l 39 44

l 39 38

l 44 43

l 44 41

l 43 42

l 43 40

l 42 45

l 42 13

l 45 46

l 45 12

l 46 49

l 46 47

l 49 58

l 49 48

l 58 56

l 58 51

l 56 55

l 56 53

l 55 57

l 55 54

l 57 52

l 60 4

l 4 2

l 61 4

l 2 3

l 6 2

l 3 1

l 5 3

l 1 9

l 7 1

l 9 10

l 8 9

l 10 14

l 11 10

l 14 17

l 15 14

l 17 18

l 16 17

l 18 21

l 19 18

l 21 20

l 25 21

l 20 22

l 24 20

l 23 22

